<svg width="200" height="200" viewBox="0 0 200 200" fill="#BA55D3" xmlns="http://www.w3.org/2000/svg">
<path fill-rule="evenodd" clip-rule="evenodd" d="M179.502 73.165C182.982 76.529 185.766 80.589 187.854 84.997H187.855C193.537 98.137 189.337 113.989 182.867 126.759C182.743 127.067 182.457 127.081 182.25 126.939C182.165 127.105 182.08 127.27 181.994 127.435C180.613 126.817 179.194 126.189 177.798 125.572H177.797L177.795 125.571L177.789 125.568C174.866 124.275 172.043 123.027 169.874 122.003H169.873C168.935 121.56 167.901 121.191 166.741 121.075C166.542 121.075 166.35 121.089 166.164 121.115L161.869 118.87V118.871C161.095 118.355 160.381 118.455 159.549 118.871C159.186 119.061 158.833 119.265 158.489 119.482L155.604 117.478V117.479C154.908 117.015 154.328 116.319 154.328 115.391C152.936 110.287 149.688 105.763 145.164 102.862C143.532 101.665 141.747 100.672 139.868 99.8838C140.131 84.5793 139.792 69.1748 137.74 54.372C113.727 51.008 88.7864 49.848 65.0054 54.952C63.284 67.7507 62.4318 84.2674 63.2588 101.075C62.216 101.639 61.2101 102.273 60.2484 102.978C55.7244 105.878 52.4764 110.402 51.0844 115.506C51.0844 115.97 50.8524 116.434 50.6204 116.782L50.5384 116.864C50.4736 116.93 50.42 116.984 50.3648 117.036C50.103 117.283 49.8033 117.49 48.0834 118.68L48.0788 118.683L48.0732 118.687C47.731 118.923 47.3329 119.199 46.8681 119.521C46.5057 119.29 46.1322 119.074 45.7484 118.872V118.871C45.0884 118.432 44.2864 118.377 43.5444 118.871L39.2526 121.114C39.0651 121.088 38.8723 121.074 38.6724 121.074C37.5124 121.19 36.4784 121.559 35.5404 122.002C33.5484 122.942 30.5226 124.606 27.2638 126.442C28.2498 119.69 28.9569 114.291 27.1874 106.227C25.6144 99.056 22.0884 92.073 17.5594 86.738C15.9634 84.858 14.3874 82.938 13.0354 80.938C7.77337 73.154 8.74337 62.841 12.8034 54.721C18.9154 42.497 32.3654 32.719 44.1244 29.316C48.1038 28.1665 51.7329 27.7927 55.4429 27.4105C61.1026 26.8274 66.9506 26.225 74.5174 22.82C80.2437 20.1158 83.2339 17.9572 86.1809 15.8299C87.9526 14.5509 89.7088 13.2832 92.0344 11.915C97.2534 8.97896 105.562 7.08196 111.291 6.34696C120.687 4.95496 130.431 4.14296 139.712 6.46296C152.928 9.81096 164.137 19.802 164.885 33.26C164.993 35.7356 164.626 38.1613 164.26 40.5834C163.837 43.3819 163.414 46.1756 163.725 49.036C164.608 57.5705 170.718 63.9488 176.441 69.9236C177.486 71.014 178.517 72.0909 179.502 73.165ZM156.185 138.359C157.809 140.246 161.517 144.405 165.501 148.709C159.473 153.487 152.333 156.578 143.754 157.237C144.703 156.424 145.159 155.497 144.932 154.137V154.136C143.817 146.892 141.152 138.852 137.859 132.265C130.174 129.723 120.474 127.542 112.612 126.101C122.042 125.82 130.568 125.852 139.016 126.411L139.059 125.322C139.108 124.071 139.157 122.817 139.206 121.559V121.56C139.835 122.308 140.46 123.052 141.104 123.742C142.032 124.786 143.192 125.598 144.352 126.294C144.999 126.682 145.538 126.71 146.11 126.738C146.563 126.761 147.036 126.785 147.6 126.99C147.655 127.017 147.716 127.045 147.781 127.074C147.99 127.167 148.235 127.277 148.412 127.454C149.45 128.232 150.524 129.047 151.573 129.877C151.506 130.303 151.458 130.733 151.429 131.167C151.429 131.972 151.463 132.737 152.241 133.255C153.269 134.362 154.351 135.415 155.487 136.378C155.486 137.391 155.64 137.602 155.953 138.03C156.022 138.125 156.1 138.231 156.185 138.359ZM32.941 156.277C34.0247 157.124 35.2114 157.846 36.4674 158.429C41.9959 160.902 47.8877 160.024 53.2649 159.2C53.1045 158.633 53.2014 157.993 53.6364 157.268C56.5374 150.656 60.1334 144.508 64.5414 138.823C64.73 138.572 64.8866 138.354 65.0248 138.162L65.0262 138.16L65.027 138.159L65.0273 138.158C65.8736 136.98 66.0295 136.764 68.6204 135.678C75.6788 132.684 84.2709 129.521 91.8409 127.045C88.2622 127.243 84.5296 127.459 80.6148 127.685H80.6142H80.6111L80.6022 127.686H80.5988H80.5882L80.5798 127.687C76.0696 127.947 71.3178 128.222 66.2814 128.499C65.9351 126.59 65.6188 124.659 65.331 122.711C64.9931 123.104 64.6534 123.489 64.3084 123.859C63.3804 124.903 62.2204 125.715 61.0604 126.411C60.413 126.799 59.874 126.827 59.3023 126.855C58.8495 126.878 58.3763 126.902 57.8124 127.107C57.7576 127.134 57.6964 127.162 57.6318 127.191C57.4226 127.284 57.1776 127.394 57.0004 127.571C55.8789 128.362 54.7949 129.191 53.7485 130.037C53.8029 130.41 53.843 130.788 53.8684 131.168C53.8684 132.028 53.8284 132.575 53.1724 133.256C52.1614 134.305 51.1263 135.328 50.0414 136.269V136.27C50.0638 137.476 49.9155 137.679 49.5776 138.144L49.5771 138.145L49.5765 138.146C49.5075 138.241 49.4305 138.346 49.3454 138.474C46.7448 141.494 38.8047 150.339 32.941 156.277ZM139.767 104.718L139.765 104.772C139.904 104.868 140.041 104.966 140.177 105.066C140.042 104.948 139.905 104.833 139.767 104.718ZM78.2294 34.303C78.7404 34.814 85.3944 44.774 85.7214 45.418V45.417C86.6004 47.148 85.2534 47.138 84.3884 46.363C83.3104 45.397 77.0694 37.086 76.3734 35.347C76.0254 34.187 77.4174 33.607 78.2294 34.303ZM103.286 44.976C103.905 40.435 104.204 31.293 103.866 29.431C103.634 28.503 102.11 28.501 102.01 29.431C101.983 29.678 102.323 43.194 102.474 44.86C102.358 45.44 103.17 45.556 103.286 44.976ZM127.763 38.595C127.041 40.04 123.306 45.163 121.056 47.292C120.298 48.009 119.791 47.337 120.266 46.575C121.369 44.807 125.739 38.681 126.487 37.783C126.951 37.435 127.995 37.783 127.763 38.595Z" fill="#5008A8"/>
<path d="M112.335 183.949C110.618 185.322 109.961 185.261 108.275 186.385C108.036 186.624 108.153 187 108.82 186.79C109.892 186.452 111.552 185.643 112.799 184.645C113.18 184.455 112.964 183.634 112.335 183.949Z" fill="#5008A8"/>
<path d="M112.265 186.781C109.244 188.796 108.802 188.795 108.074 189.096C107.941 189.151 107.996 189.898 108.601 189.799C110.417 189.504 112.013 188.184 112.645 187.762C114.41 186.585 113.37 185.675 112.264 186.78L112.265 186.781Z" fill="#5008A8"/>
<path d="M105.783 128.645C105.667 136.304 105.609 142.885 106.421 150.425C106.421 150.889 107.647 150.81 107.531 150.23C106.835 142.574 106.975 136.263 106.917 128.606C106.91 127.626 105.8 127.508 105.783 128.645Z" fill="#5008A8"/>
<path fill-rule="evenodd" clip-rule="evenodd" d="M90.4538 127.123C81.5555 130.193 68.7192 135.2 65.9777 136.387C65.3921 136.64 65.2414 136.861 65.0669 137.117C65.0349 137.163 65.0021 137.211 64.9657 137.261C60.1847 143.1 56.6537 149.761 53.4047 156.573C52.8467 157.744 52.2447 159.009 53.1727 160.169C54.1007 161.097 55.1447 161.793 56.4207 162.257C56.4207 162.257 63.4817 165.845 64.8687 166.533C65.2977 169.851 65.7865 171.935 66.1616 173.535C66.2465 173.896 66.3255 174.233 66.3967 174.554C66.5127 175.714 67.2087 176.758 68.0207 177.454C69.4127 178.266 70.8047 178.962 72.1967 179.542C73.3708 180.109 74.4904 180.651 75.5661 181.171C86.2984 186.363 92.6752 189.448 105.49 194.971C105.812 195.078 106.035 194.888 106.158 194.583C115.753 190.181 124.612 184.432 132.867 177.803C133.222 177.518 133.58 177.233 133.94 176.947C135.543 175.673 137.175 174.376 138.667 172.93C140.22 171.426 140.287 169.25 140.352 167.17C140.365 166.724 140.379 166.283 140.407 165.854C140.44 165.357 140.474 164.859 140.509 164.361C140.603 162.992 140.699 161.619 140.755 160.239C141.657 159.61 142.548 158.97 143.423 158.314C144.467 157.734 145.279 156.806 145.627 155.646C145.743 154.37 145.627 152.978 145.279 151.702L145.281 151.7C144.052 145.22 142.106 138.771 138.907 132.893C138.394 131.949 138.051 131.632 137.451 131.462C131.882 129.881 122.156 127.6 114.003 126.062C112.444 126.104 110.861 126.154 109.25 126.213C109.389 126.24 109.528 126.267 109.667 126.295C119.476 127.93 127.741 129.637 137.287 132.425C129.185 138.318 120.634 143.428 111.523 147.756C109.779 148.59 107.641 149.311 105.592 150.002C104.674 150.311 103.774 150.615 102.935 150.92C102.426 150.535 92.4349 146.986 85.3854 144.482C84.3551 144.116 83.3876 143.772 82.5217 143.464C81.4344 143.077 80.3335 142.699 79.227 142.32C74.884 140.831 70.4536 139.311 66.4107 137.071C76.6476 132.915 80.8519 131.462 85.477 129.863C87.5703 129.14 89.7497 128.386 92.6137 127.339H92.6147C92.9902 127.202 93.3672 127.069 93.7453 126.941C92.6625 127 91.5656 127.06 90.4538 127.123ZM53.7527 158.08C53.2887 159.82 54.6917 160.493 55.9567 161.096C60.0344 163.041 63.4511 164.74 66.4486 166.231C72.2515 169.118 76.4831 171.223 80.8977 172.813C81.4087 172.997 81.9229 173.204 82.4327 173.409C83.2998 173.758 84.1541 174.102 84.9577 174.321C85.2518 174.401 85.5644 174.506 85.887 174.614C86.9639 174.976 88.1518 175.374 89.1337 175.017C90.1471 174.648 90.6483 173.621 91.1022 172.691C91.2199 172.45 91.3343 172.216 91.4537 172.001C92.397 169.957 94.2807 166.554 96.4078 162.71C98.3328 159.232 100.457 155.393 102.264 151.877C101.819 151.625 93.1437 148.432 79.2737 143.58C78.5105 143.313 77.7407 143.051 76.9683 142.788C73.0961 141.47 69.1581 140.13 65.6607 138.038C61.7657 142.995 58.2997 148.302 55.6087 154.02C54.9127 155.296 54.2167 156.688 53.7527 158.08ZM70.4096 177.603C70.6671 177.708 70.9187 177.81 71.1537 177.917L71.1763 177.928C82.3858 183.362 93.5964 188.797 105.022 193.584C103.551 182.316 102.611 167.73 102.832 153.128C101.271 156.068 99.6696 158.987 98.0681 161.906C96.2695 165.184 94.471 168.462 92.7307 171.769C92.1507 173.161 91.4547 174.321 90.5267 175.365C89.5987 176.177 88.2067 176.409 87.0467 176.061C80.3177 173.991 72.0147 170.057 65.7447 166.964C66.0507 168.862 66.8507 173.694 67.5577 175.481C68.0105 176.625 69.2687 177.138 70.4096 177.603ZM139.179 166.597C139.214 165.634 139.253 164.526 139.365 163.185C139.411 162.497 139.45 161.807 139.484 161.116C138.447 161.824 137.399 162.523 136.351 163.222L136.233 163.301C127.265 169.279 117.148 173.611 112.916 174.669C111.872 174.901 110.828 174.205 110.596 173.161C110.524 172.945 110.375 172.37 110.156 171.53C109.18 167.773 106.827 158.714 103.871 152.788C103.894 153.078 103.89 153.836 103.883 155.016C103.851 160.431 103.766 174.734 106.07 193.44C117.191 188.528 126.516 182.055 135.885 173.857C136.929 173.161 137.857 172.233 138.553 171.189C139.065 169.781 139.112 168.461 139.179 166.597ZM136.813 161.561C139.133 160.053 141.37 158.585 143.425 156.805V156.804C144.495 155.877 144.388 154.724 144.272 153.479C144.26 153.351 144.248 153.222 144.237 153.092C143.938 149.497 141.616 141.02 137.827 133.422C134.923 135.677 125.592 142.133 117.664 146.295C113.72 148.474 109.105 150.303 104.688 151.744C107.792 156.725 111.056 170.15 111.52 172.059C111.555 172.2 111.574 172.278 111.576 172.285C111.907 173.22 112.22 173.741 113.148 173.509C113.844 173.393 114.424 173.161 115.004 172.929C122.906 170.057 130.767 165.747 136.813 161.561Z" fill="#5008A8"/>
<path fill-rule="evenodd" clip-rule="evenodd" d="M52.5913 110.519C54.9399 106.226 58.8158 102.781 63.2312 100.501C63.246 100.817 63.2614 101.133 63.2774 101.449C58.2401 104.197 54.1669 108.263 52.0113 113.651C51.8758 114.024 51.7798 114.426 51.683 114.832C51.4484 115.816 51.2085 116.822 50.3873 117.479C49.3367 118.287 48.286 119.039 47.1962 119.735C47.0039 119.605 46.8083 119.48 46.6096 119.359C48.088 118.259 48.486 117.988 48.7936 117.778C49.0157 117.626 49.1908 117.507 49.6913 117.131C50.1553 116.783 50.5033 116.203 50.6193 115.623C51.0833 113.883 51.6633 112.143 52.5913 110.519ZM53.8276 130.679C54.4982 130.128 55.1657 129.586 55.8403 129.08C56.4203 128.5 57.1163 128.036 57.8123 127.688C58.2763 127.533 58.7403 127.482 59.2043 127.43C59.4363 127.404 59.6683 127.379 59.9003 127.34C61.2923 126.992 62.4523 126.296 63.4963 125.252C64.1496 124.599 64.8029 123.945 65.4147 123.271C65.3565 122.886 65.2995 122.499 65.2435 122.112C62.9506 124.673 61.3743 126.412 58.6243 126.412C57.2323 126.76 55.9563 127.456 54.9123 128.5C54.4831 128.822 54.0649 129.144 53.6544 129.469C53.7287 129.868 53.7866 130.272 53.8276 130.679Z" fill="#5008A8"/>
<path fill-rule="evenodd" clip-rule="evenodd" d="M146.414 126.929C143.497 126.929 141.163 124.377 139.189 121.988L139.236 120.785C139.553 121.145 139.833 121.474 140.098 121.783C141.161 123.032 141.964 123.974 143.887 125.367C144.356 125.707 145.047 125.947 145.743 126.063C147.992 126.063 149.472 127.335 151.683 129.262C151.623 129.563 151.571 129.866 151.53 130.172C150.65 129.446 149.75 128.732 148.85 128.089C148.154 127.509 147.342 127.045 146.414 126.929ZM158.869 119.25C158.375 118.878 157.586 118.284 156.275 117.301V117.3C155.811 117.068 155.347 116.604 154.999 116.14C154.651 115.328 154.419 114.516 154.303 113.588C153.655 111.323 151.01 106.802 147.111 103.612C145.107 101.942 142.565 100.393 139.879 99.2355L139.867 99.9402C146.189 102.712 151.803 108.067 153.632 114.463C153.748 115.275 154.096 116.087 154.56 116.783C155.256 117.363 155.952 117.943 156.764 118.407C157.31 118.816 157.855 119.185 158.401 119.538C158.555 119.439 158.711 119.344 158.869 119.25ZM140.059 105.067C139.96 105.001 139.862 104.936 139.763 104.872C139.772 104.502 139.781 104.132 139.79 103.761C140.037 103.959 140.282 104.163 140.523 104.371C140.987 104.719 140.523 105.299 140.059 105.067Z" fill="#5008A8"/>
<path d="M114.075 88.9408C113.981 88.0098 113.379 87.0848 112.567 86.6208C111.639 86.2728 110.711 86.2728 109.783 86.5048C105.897 87.3498 98.4923 87.2308 95.2823 86.6188C94.3543 86.2708 93.3103 86.1548 92.2663 86.2708C89.5143 87.0588 89.4583 90.5258 91.8023 91.6068C91.9183 91.6068 91.9183 91.7228 92.0343 91.7228C93.3603 92.2198 95.0373 91.0818 95.6303 94.0428C95.8913 94.6948 98.1823 101.903 98.5153 102.77C98.6483 103.117 99.4313 102.705 99.3893 102.404C99.1653 100.815 97.4933 97.0318 97.0223 95.3198C96.7013 94.1518 96.3263 92.9998 95.7463 91.8398C95.1663 91.0278 94.2383 90.5638 93.1943 90.6798C92.0343 90.6798 90.8743 89.8678 91.2223 88.5918C91.6863 87.0838 93.1943 87.3158 94.4703 87.5478C98.2183 88.5248 105.919 88.5268 109.667 87.5488C110.827 87.3168 112.451 87.0848 112.915 88.5928C113.263 89.8688 112.103 90.6808 110.943 90.6808C110.015 90.5648 109.087 91.0288 108.507 91.7248C107.188 94.3638 105.83 100.576 105.122 102.259C104.82 102.976 105.9 102.869 106.032 102.521C106.909 100.204 107.973 95.8438 108.971 93.3488C109.087 92.7688 109.435 92.3048 109.899 92.0728C110.479 91.9568 110.943 91.9568 111.523 91.9568C113.031 91.8408 114.227 90.4448 114.075 88.9408Z" fill="#5008A8"/>
<path d="M54.1003 130.355C53.6133 125.969 50.5333 120.915 45.5163 118.407C45.0523 118.175 44.5883 118.059 44.1243 118.175C43.5443 118.407 42.9643 118.755 42.3843 119.103C41.2773 119.614 40.2333 120.188 39.2063 120.824C35.1503 120.366 29.3723 125.271 12.9193 134.184C12.8033 134.3 13.0333 134.643 13.2673 134.532C20.4243 131.122 27.6543 126.411 34.3803 123.048C35.6563 122.236 37.1643 121.772 38.6723 121.54C40.5283 121.772 42.2683 122.584 43.6603 123.86C46.5603 126.18 48.4163 129.428 49.1123 133.025C49.3443 133.837 49.4603 134.765 49.4603 135.693C49.5763 136.157 49.5763 136.621 49.4603 137.201C49.3443 137.549 49.1123 137.897 48.7643 138.245C48.3003 138.825 47.8363 139.405 47.2563 139.869C38.3323 149.75 33.6623 154.898 27.0713 160.982C26.4913 161.446 27.3033 162.142 27.7673 161.678C31.4343 158.624 33.5923 156.085 37.3953 152.282C42.7983 146.704 45.9953 142.921 49.3433 139.057C49.8073 138.593 50.0393 138.129 50.2713 137.549C50.3043 137.281 50.3283 137.013 50.3423 136.745C51.9313 135.315 52.5753 134.584 53.6353 133.372C54.2153 132.444 54.4473 131.4 54.0993 130.356L54.1003 130.355ZM50.9683 134.995C50.7593 135.181 50.5503 135.357 50.3413 135.528C50.1153 131.455 48.4463 127.738 45.8643 124.787C44.0413 122.781 41.4783 121.362 40.0843 120.99C42.6733 119.783 42.8733 119.253 44.4713 118.987C45.1673 119.103 45.8633 119.335 46.4433 119.799C51.0933 122.807 53.3023 127.466 53.4033 131.515C53.4383 132.907 52.0113 134.067 50.9673 134.995H50.9683Z" fill="#5008A8"/>
<path d="M189.131 130.586C182.635 127.056 170.371 121.75 168.83 121.19C167.998 120.87 167.096 120.762 166.201 120.846C164.691 119.912 162.305 118.573 161.82 118.341C161.399 118.139 160.976 118.009 160.594 118.057C159.55 118.289 158.506 118.869 157.694 119.565C155.274 121.292 153.524 123.33 152.126 126.525C151.778 127.453 151.43 128.497 151.314 129.541C151.082 130.585 151.082 131.629 151.314 132.557C151.894 133.717 152.822 134.645 153.75 135.457C155.256 137.15 154.839 136.003 155.026 137.313C155.374 138.125 155.954 138.937 156.534 139.517C156.918 139.901 171.794 157.029 177.531 161.442C177.995 161.906 178.807 161.094 178.227 160.746C175.443 158.31 172.842 155.697 170.339 152.974C167.304 149.672 160.571 142.714 157.23 138.705C156.534 137.893 155.838 137.313 155.838 136.153C155.838 134.413 156.186 132.789 156.65 131.165C157.578 128.033 159.55 125.249 162.218 123.277C163.494 122.117 165.234 121.537 166.974 121.305C168.482 121.537 169.99 122.001 171.266 122.813C177.182 125.365 183.099 128.033 188.899 130.701C189.247 131.049 189.479 130.701 189.131 130.585V130.586ZM155.374 132.558C155.171 133.977 155.173 133.055 154.972 135.345C154.749 135.158 154.534 134.966 154.33 134.762C153.402 133.834 151.858 132.789 151.894 131.282C151.952 128.844 152.706 126.526 153.982 124.553C155.703 121.454 159.082 119.185 160.848 118.891C161.472 118.98 164.056 120.372 165.222 121.015C160.965 122.092 156.516 126.845 155.374 132.557V132.558Z" fill="#5008A8"/>
<path d="M122.659 69.6846C116.233 52.5506 89.8913 51.5686 82.2893 68.2926C78.6933 76.0646 81.4773 85.1136 85.6533 92.1896C88.1013 96.3056 90.8673 100.102 92.9323 104.294C92.2573 104.405 91.7763 104.577 91.5693 105.298C91.2213 107.27 90.9893 109.242 91.1053 111.215C90.9893 113.419 91.1053 115.623 91.2213 117.827C91.2213 118.059 91.3373 118.291 91.5693 118.291C95.3003 119.063 105.987 119.909 112.682 118.523C112.914 118.407 113.03 118.291 113.03 118.059C113.227 114.306 113.335 109.231 112.682 105.531C112.456 104.742 111.903 104.61 111.233 104.497C117.001 93.3806 120.121 92.2526 123.006 81.8656C124.166 77.8056 124.05 73.6296 122.658 69.6846H122.659ZM111.871 106.691C112.206 110.271 112.325 113.959 112.125 117.547C107.25 118.542 97.2913 118.37 92.1263 117.315C92.0443 115.907 91.9983 114.483 91.9973 113.057C97.9643 113.091 107.553 113.34 110.826 113.419C111.058 113.419 111.174 113.187 111.174 112.955C111.174 112.839 111.058 112.723 110.826 112.607C109.642 112.592 94.1353 112.274 92.0023 112.292C92.0163 111.122 92.0633 109.953 92.1503 108.789C95.2053 108.776 98.2723 108.526 101.44 108.526C110.018 108.526 108.551 108.674 110.942 108.674C111.406 108.674 111.406 107.978 110.942 107.978C104.2 107.496 97.7173 107.768 92.1973 108.202C92.2483 107.619 92.3093 107.037 92.3813 106.459C92.3813 105.199 92.5103 105.067 94.0053 105.067C100.674 104.233 109.126 104.815 111.522 105.415C111.754 105.647 111.754 106.227 111.87 106.691H111.871ZM117.207 92.5376C114.823 96.3986 111.651 100.096 110.321 104.385C102.251 103.424 100.766 103.395 93.8643 104.178C91.8023 97.8126 86.2123 93.8396 82.6383 82.7936C80.1263 75.0286 82.0413 66.5876 89.1343 61.3326C99.7493 53.6136 116.349 57.2166 121.383 69.3366C124.631 77.1086 121.267 85.8096 117.207 92.5376Z" fill="#5008A8"/>
<path d="M44.6702 122.05C45.1744 122.05 45.5832 121.641 45.5832 121.137C45.5832 120.633 45.1744 120.224 44.6702 120.224C44.166 120.224 43.7572 120.633 43.7572 121.137C43.7572 121.641 44.166 122.05 44.6702 122.05Z" fill="#5008A8"/>
<path d="M160.176 122.218C160.68 122.218 161.089 121.809 161.089 121.305C161.089 120.801 160.68 120.392 160.176 120.392C159.672 120.392 159.263 120.801 159.263 121.305C159.263 121.809 159.672 122.218 160.176 122.218Z" fill="#5008A8"/>
<path d="M73.4735 106.342C73.3575 105.298 72.5475 105.049 71.7335 104.95C70.5765 104.81 69.4135 104.834 68.2535 104.95C63.6205 105.17 58.3565 107.066 54.5645 110.634C54.2165 110.75 54.4485 111.098 54.7965 110.982C56.8845 109.474 59.1835 108.264 61.6405 107.27C65.2695 105.802 68.2305 105.878 71.0365 105.878C71.7325 105.878 72.6605 105.994 72.0805 106.806C69.3675 109.518 65.9445 111.543 61.8725 112.838C61.6405 112.954 61.5245 113.07 61.5245 113.302C61.5245 116.711 60.1465 119.762 57.9285 122.35C57.2325 123.162 56.3045 123.858 55.4925 124.554C55.0275 124.787 55.5545 125.639 56.0725 125.366C57.1295 124.809 58.0445 123.973 58.7405 123.046C61.0525 120.403 62.4655 117.49 62.5635 113.66C65.9065 112.606 68.9285 110.905 71.7325 108.661C72.4285 108.081 73.5885 107.385 73.4725 106.341L73.4735 106.342Z" fill="#5008A8"/>
<path fill-rule="evenodd" clip-rule="evenodd" d="M138.437 54.1396C138.437 53.7916 138.205 53.5596 137.857 53.5596C113.094 50.2366 89.5056 49.3556 65.0056 54.2556C64.5266 54.3236 64.4016 54.8056 64.5466 55.1416C63.4346 62.0446 62.7516 74.1496 62.5696 81.4016C62.381 89.6014 62.4964 97.9892 63.0675 106.329C63.5024 106.203 63.941 106.089 64.383 105.987C63.0752 88.0794 64.2098 73.2375 65.2279 59.9212C65.3453 58.3852 65.4612 56.8694 65.5716 55.3716C79.2376 52.6656 89.6466 52.0316 101.486 52.0866C101.478 52.888 101.531 54.0262 101.611 55.71C101.798 59.6654 102.127 66.6312 102.127 79.3126C102.418 103.449 101.948 111.364 101.22 123.624C101.177 124.347 101.134 125.085 101.089 125.842C89.0857 126.454 75.4172 127.332 69.0222 127.743L69.0211 127.744L68.9857 127.746C68.2487 127.793 67.6094 127.834 67.0816 127.868C66.134 122.389 65.4313 117.172 64.9245 112.187C64.488 112.375 64.0457 112.553 63.5984 112.72C64.121 118.046 64.8474 123.327 65.8176 128.5C65.9336 128.732 66.0496 128.848 66.2816 128.848C75.7936 128.268 85.1906 127.804 94.7026 127.34L96.2414 127.264C111.543 126.507 124.953 125.844 139.017 126.76C139.365 126.76 139.591 126.528 139.597 126.18C139.659 122.804 139.808 118.964 139.971 114.746V114.745C140.005 113.849 140.041 112.935 140.076 112.005C139.787 111.874 139.5 111.738 139.216 111.597C139.129 114.3 138.954 117.019 138.78 119.735V119.736C138.655 121.678 138.531 123.619 138.438 125.55C126.44 124.86 114.442 125.181 102.475 125.771C103.99 106.258 102.954 58.3246 102.475 52.0926C110.16 52.1586 120.418 52.5816 137.201 54.7356C139.263 71.4739 139.652 88.7342 139.351 105.664C139.667 105.713 139.982 105.769 140.295 105.83C140.774 90.9229 140.921 72.7695 138.437 54.1406V54.1396Z" fill="#5008A8"/>
<path d="M150.848 110.519C147.6 107.155 142.728 105.415 138.203 104.951C137.043 104.835 135.767 104.719 134.607 104.835C133.795 104.835 132.751 104.951 132.287 105.647C131.823 106.343 132.519 107.387 133.099 107.851C135.912 110.439 139.272 112.372 142.965 113.545C143.029 115.851 143.664 118.068 144.699 120.032C145.721 121.97 147.517 124.347 149.455 125.368C149.684 125.489 149.919 125.484 150.035 125.252C150.151 125.02 150.151 124.788 149.919 124.672C149.107 123.86 148.295 123.28 147.483 122.468C145.198 119.802 144.063 116.762 143.887 113.42C143.887 113.188 143.771 112.956 143.539 112.956C140.987 112.144 138.551 110.984 136.347 109.476C135.767 109.128 135.187 108.664 134.723 108.2C134.143 107.852 133.679 107.388 133.331 106.924C132.751 106.112 133.795 105.996 134.375 105.996C140.436 105.996 145.022 107.061 150.615 111.1C150.847 111.1 151.079 110.752 150.847 110.52L150.848 110.519Z" fill="#5008A8"/>
</svg>
