<svg width="200" height="200" viewBox="0 0 200 200" fill="#BA55D3" xmlns="http://www.w3.org/2000/svg">
<path d="M114.88 42.8197C114.77 39.3597 113.88 43.1497 114.38 44.1697C114.397 44.2007 114.421 44.2279 114.449 44.2497C114.477 44.2715 114.509 44.2875 114.544 44.2968C114.578 44.3061 114.614 44.3085 114.649 44.3038C114.685 44.2992 114.719 44.2876 114.75 44.2697C114.79 44.2443 114.824 44.2101 114.85 44.1697C114.935 43.7237 114.935 43.2657 114.85 42.8197H114.88ZM105.42 56.8997C104.75 56.8997 97.5297 56.5297 97.5697 57.0797C97.1197 56.9497 97.5697 60.1797 97.5697 60.5597C97.5697 60.9397 98.3397 60.8797 98.5697 60.8997C100.57 61.0497 106.11 61.0097 106.57 61.0097C107.03 61.0097 106.76 57.2097 106.75 57.1997C106.74 56.7797 105.66 56.9097 105.42 56.8997ZM106.29 60.5297C104.58 60.5297 99.6997 60.4097 98.0797 60.5297C97.9597 59.4297 97.8397 58.3297 97.7297 57.2297L106.32 57.3997C106.25 58.4397 106.29 59.4897 106.29 60.5297ZM92.8597 61.8697C92.898 61.8654 92.9337 61.8483 92.9609 61.821C92.9882 61.7938 93.0054 61.758 93.0097 61.7197V59.1697C93.0097 58.7897 92.3997 58.7197 92.4197 59.1097C92.4197 59.9897 92.5297 60.8597 92.5997 61.7297C92.6004 61.7597 92.6091 61.789 92.6247 61.8145C92.6404 61.8401 92.6626 61.861 92.689 61.8752C92.7154 61.8894 92.7451 61.8964 92.7751 61.8955C92.805 61.8945 92.8342 61.8856 92.8597 61.8697ZM114.5 55.7997C114.461 55.8051 114.424 55.8225 114.396 55.8493C114.367 55.8762 114.348 55.9113 114.34 55.9497C114.34 56.3697 114.07 58.7697 114.57 58.8197C115.19 58.8197 114.77 56.4897 114.71 55.9297C114.698 55.8854 114.67 55.8472 114.63 55.823C114.591 55.7989 114.545 55.7905 114.5 55.7997ZM114.77 61.3597C114.67 60.6697 114.32 60.7197 114.28 61.6597V62.7797C114.28 63.4997 115.14 64.0697 114.77 61.3597ZM114.55 65.8497C114.01 65.8997 114.43 68.3897 114.5 68.8497C114.5 69.0197 114.81 69.0597 114.82 68.8497C114.82 67.9497 114.82 67.0497 114.88 66.1497C114.882 66.1072 114.874 66.0648 114.858 66.0255C114.841 65.9862 114.817 65.951 114.785 65.9223C114.754 65.8937 114.716 65.8724 114.675 65.8598C114.635 65.8473 114.592 65.8438 114.55 65.8497ZM114.82 46.4097C114.82 46.1997 114.45 46.2297 114.41 46.4097C114.37 46.5897 114.07 49.8097 114.77 49.0097C114.92 48.1462 114.92 47.2633 114.77 46.3997L114.82 46.4097ZM114.27 51.7697V53.7697C114.27 54.1697 114.9 54.1097 114.88 53.7697C114.88 53.1097 114.88 52.4497 114.78 51.7697C114.72 50.7097 114.29 50.6497 114.27 51.7697ZM114.41 71.3097C114.259 72.1766 114.259 73.0629 114.41 73.9297C114.41 74.1497 114.78 74.1097 114.82 73.9297C114.86 73.7497 115.11 70.5097 114.41 71.3097ZM141.19 43.6797C141.757 43.7724 142.28 44.046 142.68 44.4597C142.9 44.6897 143.18 44.2897 142.36 43.6297C141 42.5597 140.43 43.5397 141.19 43.6797ZM140.46 47.5497C141.35 47.2997 140.61 45.4497 140.34 46.8797C140.31 46.9997 140.22 47.6197 140.46 47.5497ZM141.14 53.8397C144.14 53.8997 143.25 49.2397 142.68 50.2397C141.36 52.4897 139.12 52.0097 138.96 52.2397C138.8 52.4697 139.73 53.8197 141.14 53.8397ZM142.83 50.7597C143.5 53.5197 140.53 54.3697 139.35 52.4897C140.029 52.521 140.705 52.3785 141.314 52.0758C141.923 51.7731 142.444 51.3201 142.83 50.7597ZM114.7 39.4797C114.739 39.4615 114.773 39.434 114.8 39.3997C114.965 38.5275 114.965 37.632 114.8 36.7597C114.8 36.5997 114.51 36.5497 114.46 36.7597C114.303 37.6312 114.28 38.5212 114.39 39.3997C114.422 39.4489 114.472 39.4842 114.529 39.499C114.587 39.5137 114.647 39.5069 114.7 39.4797ZM136.68 49.8997C136.88 50.7997 139.24 49.8197 137.17 49.7197C137.3 48.4273 137.571 47.1529 137.98 45.9197C138.14 45.3797 137.27 45.6197 136.76 49.2097C136.693 49.4333 136.666 49.6668 136.68 49.8997ZM92.4497 64.3597C92.4708 65.2437 92.5476 66.1254 92.6797 66.9997C92.6797 67.0422 92.6965 67.0829 92.7265 67.1129C92.7565 67.1429 92.7972 67.1597 92.8397 67.1597C92.8821 67.1597 92.9228 67.1429 92.9528 67.1129C92.9828 67.0829 92.9997 67.0422 92.9997 66.9997C93.3397 62.5497 92.4497 64.2997 92.4497 64.3597ZM135.29 45.6597C134.93 46.1397 135 47.0097 135.4 46.6597C135.8 46.3097 135.54 45.3197 135.29 45.6597ZM92.5097 74.7997C92.0197 75.8797 93.1197 79.7997 93.0697 75.4897C93.0597 74.7997 92.7397 74.3097 92.5097 74.7997ZM92.5297 72.1097C92.5297 72.3197 92.9097 72.2897 92.9497 72.1097C92.9897 71.9297 93.2797 68.7097 92.5897 69.4997C92.4195 70.3632 92.3992 71.2494 92.5297 72.1197V72.1097Z" fill="#5008A8"/>
<path d="M131.65 38.4896C132.302 39.0811 133.04 39.57 133.84 39.9396C132.58 44.1096 129.9 57.4996 136.99 58.2996C136.99 58.9396 136.93 59.5796 136.9 60.2296C134.71 60.9073 132.606 61.8369 130.63 62.9996C129.82 64.3196 129.01 65.6496 128.25 66.9996C127.248 68.8621 126.35 70.7784 125.56 72.7396C126.966 73.2537 128.277 73.9971 129.44 74.9396C130.64 75.8396 128.5 77.2096 127.64 78.2996C130.074 82.7655 133.257 86.7804 137.05 90.1696C137.28 88.7896 137.55 87.6096 137.66 87.1696C135.36 83.1696 132.36 68.1696 132.71 62.5696C133.31 62.2696 133.91 61.9996 134.51 61.7496C134.51 62.8896 135.6 65.6396 136.76 65.9196C136.89 66.3196 137.41 65.5196 137.76 65.1696C137.95 65.8596 138.21 66.5696 138.33 67.0896C139.161 66.9117 140.025 66.9777 140.82 67.2796C141.24 66.6996 141.95 65.8696 142.3 65.4796C142.47 65.7096 142.75 66.1996 143.05 66.1496C145.44 65.6996 149.05 63.4196 150.28 61.1996C151.02 61.3896 151.74 61.5996 152.46 61.8396C145.93 68.9996 139.46 81.2296 137.78 90.5796C142.1 87.4596 149.21 82.2596 152.58 79.0496C149.97 74.9796 147.79 75.2796 153.03 74.2496C154.03 74.0596 154.98 73.8696 155.96 73.7296C155.7 69.8229 155.26 65.9363 154.64 62.0696C152.407 61.1102 150.051 60.4674 147.64 60.1596C147.58 58.6096 147.64 57.0496 147.64 55.4996C147.64 55.4996 154.77 46.9896 153.93 41.3596C153.6 39.1096 151.84 38.9396 150.01 39.5296C151.42 38.1796 153.11 38.3896 153.01 37.5296C152.86 36.2596 149.65 37.0196 148.61 38.8796C145.66 32.7896 138.61 31.0596 142.49 35.6396C139.94 33.9596 137.09 32.4896 133.95 32.4896C129.26 32.4196 128.7 35.8096 131.65 38.4896ZM136.91 65.4896C136.311 65.0108 135.813 64.4176 135.446 63.7446C135.078 63.0716 134.849 62.3323 134.77 61.5696C135.5 61.2696 136.23 60.9996 136.98 60.7496C137.842 61.5286 138.743 62.2629 139.68 62.9496C138.585 63.6006 137.641 64.4766 136.91 65.5196V65.4896ZM147.66 60.5696C148.38 60.7196 149.09 60.8696 149.8 61.0496C148.048 63.1905 145.746 64.8122 143.14 65.7396C142.392 64.7449 141.533 63.839 140.58 63.0396C143.095 62.7789 145.518 61.9442 147.66 60.5996V60.5696ZM134.18 40.0896C136.42 41.0296 143.32 42.0296 145.81 41.9296C144.35 45.6296 146.04 49.2396 147.08 47.5296C147.37 47.0396 147.87 46.2696 148.68 46.9096C149.15 47.2896 149.33 48.2096 148.51 49.6696C147.643 51.1076 147.199 52.7609 147.23 54.4396C147.098 56.3867 147.071 58.3396 147.15 60.2896C145.007 61.4921 142.667 62.3047 140.24 62.6896L137.24 60.4696C137.34 59.1996 137.69 57.7696 137.24 57.7696C136.669 57.7357 136.112 57.5798 135.607 57.3124C135.101 57.045 134.659 56.6724 134.31 56.2196C131.52 52.8696 133.17 44.0496 134.18 40.0896Z" fill="#5008A8"/>
<path d="M134.79 44.2495C135.031 44.0611 135.308 43.924 135.603 43.8466C135.899 43.7692 136.208 43.7532 136.51 43.7995C136.553 43.7943 136.593 43.7751 136.625 43.7449C136.656 43.7147 136.677 43.6751 136.683 43.6322C136.69 43.5892 136.683 43.5452 136.662 43.5068C136.642 43.4685 136.609 43.4378 136.57 43.4195C134.77 42.9995 134.2 44.7395 134.79 44.2495ZM138.38 67.6095C137.58 71.5562 136.783 75.5095 135.99 79.4695C136.449 81.659 137.119 83.7989 137.99 85.8595C138.778 83.4804 139.689 81.1439 140.72 78.8595C140.48 76.0795 140.34 69.2895 140.45 68.0195C139.832 67.6367 139.097 67.491 138.38 67.6095ZM66 42.8095C66.84 42.6995 65.37 37.8095 65.63 42.0695C65.66 42.3295 65.63 42.8595 66 42.8095ZM65.64 84.1795C65.64 84.4795 65.56 85.4995 66.04 85.4395C66.88 85.3295 65.48 80.8195 65.64 84.1795ZM66.15 53.9995C66.1405 53.9602 66.1181 53.9253 66.0864 53.9003C66.0546 53.8753 66.0154 53.8617 65.975 53.8617C65.9346 53.8617 65.8953 53.8753 65.8636 53.9003C65.8318 53.9253 65.8094 53.9602 65.8 53.9995C65.6416 54.8676 65.6214 55.7552 65.74 56.6295C65.768 56.6864 65.8173 56.7299 65.8773 56.7505C65.9372 56.7711 66.0029 56.7672 66.06 56.7395C66.0975 56.7186 66.1313 56.6915 66.16 56.6595C66.3193 55.7797 66.316 54.8781 66.15 53.9995ZM65.67 89.9995C65.73 90.4095 66.3 90.3795 66.28 89.6395C66.19 87.2995 65.66 87.2595 65.65 88.4195C65.61 88.9454 65.61 89.4736 65.65 89.9995H65.67ZM65.64 60.0895C65.5982 60.5254 65.632 60.9652 65.74 61.3895C65.7792 61.4508 65.8401 61.4952 65.9105 61.5137C65.9809 61.5322 66.0556 61.5236 66.12 61.4895L66.22 61.3895C66.22 61.2895 66.22 58.1395 65.77 58.7895C65.54 59.0995 65.64 59.7195 65.64 60.0895ZM66.08 73.1995C66.0763 73.1757 66.068 73.1529 66.0554 73.1324C66.0428 73.1119 66.0262 73.0942 66.0066 73.0802C65.9871 73.0662 65.9649 73.0563 65.9414 73.051C65.9179 73.0457 65.8936 73.0452 65.87 73.0495C65.8317 73.0538 65.796 73.071 65.7687 73.0983C65.7414 73.1255 65.7243 73.1612 65.72 73.1995C65.72 73.6195 65.44 76.0195 65.94 76.0695C66.56 76.1495 66.14 73.7695 66.08 73.1995ZM66.05 68.3595C66.05 68.3171 66.0331 68.2764 66.0031 68.2464C65.9731 68.2164 65.9324 68.1995 65.89 68.1995C65.8475 68.1995 65.8068 68.2164 65.7768 68.2464C65.7468 68.2764 65.73 68.3171 65.73 68.3595C65.39 72.8195 66.28 71.0595 66.28 70.9995C66.2592 70.1155 66.1824 69.2338 66.05 68.3595ZM66.18 63.6695C66.18 63.4495 65.81 63.4895 65.77 63.6695C65.73 63.8495 65.44 67.0695 66.13 66.2695C66.297 65.4055 66.3139 64.5193 66.18 63.6495V63.6695ZM65.66 78.9095V79.9995C65.66 80.7195 66.52 81.2895 66.15 78.5795C66.05 77.9195 65.7 77.9995 65.66 78.9095ZM122.91 119.19C121.384 118.857 119.896 118.368 118.47 117.73C118.54 119.31 118.62 120.84 118.7 122.36C121.34 122.29 122.62 121.93 122.91 119.21V119.19ZM160.22 125.23L160.48 120.64C158.13 120.858 155.77 120.951 153.41 120.92C154.38 124.76 156.38 125.13 160.22 125.23ZM164.56 187.69C163.85 173.63 163.48 135.6 163.92 120.23C163.02 120.37 162.04 120.49 161.02 120.59C160.33 143.59 160.02 164.69 161.47 187.96C162.507 188.01 163.547 187.919 164.56 187.69ZM92.78 93.3995L48.24 92.6995C46.44 92.6995 44.61 92.5895 42.8 92.6995C42.59 92.6995 42.62 93.0295 42.8 93.0495C45.01 93.2595 50.07 93.2695 52.56 93.3195L92.73 93.9995C93.12 93.9995 93.18 93.3995 92.78 93.3995Z" fill="#5008A8"/>
<path d="M153.249 187.84C155.747 188.053 158.256 188.1 160.759 187.98C159.759 167.34 159.379 146.69 160.189 125.98C158.009 125.98 154.409 125.44 153.339 123.21C152.963 122.497 152.787 121.695 152.829 120.89C146.379 120.72 140.319 119.5 138.699 116.48C138.341 117.182 137.766 117.75 137.059 118.1C137.059 119.28 136.879 124.9 137.359 125.79C137.729 126.5 138.549 126.4 139.219 126.52C139.286 126.538 139.342 126.582 139.376 126.642C139.409 126.702 139.418 126.773 139.399 126.84C139.387 126.882 139.363 126.921 139.332 126.952C139.301 126.984 139.262 127.007 139.219 127.02C137.359 127.32 136.529 126.23 136.429 124.5C136.264 122.47 136.264 120.43 136.429 118.4C133.569 119.75 128.489 120.29 123.429 119.3C123.429 122.38 121.339 123.16 118.679 123.23C120.379 153.76 124.459 172.56 129.609 187.93C129.779 188.42 140.349 188.31 140.329 187.84C139.549 170.62 139.129 155.51 141.019 140.44L140.019 132.44C137.319 131.28 137.819 130.44 138.269 130.73L139.909 131.73C140.279 131.9 140.589 131.88 140.569 132.35C143.279 150.9 147.629 168.61 153.249 187.84ZM56.6194 85.8796C53.7514 85.7694 50.8792 85.8362 48.0194 86.0796C47.3794 86.1496 47.2194 86.2196 47.2194 86.8596C47.2194 87.7596 47.2194 89.6296 47.6294 89.3896C47.6894 89.6296 54.4094 89.5796 56.2694 89.4796C56.7794 89.4796 56.8794 89.1496 56.5894 89.0296C56.8194 88.9996 56.8994 85.9996 56.6194 85.8796ZM47.6994 89.1796C47.7494 88.2837 47.7494 87.3856 47.6994 86.4896C50.4694 86.4196 53.5494 86.4896 56.2394 86.2996C56.2394 86.6696 56.0894 88.7996 56.3494 88.9996C55.2794 88.9296 47.8694 89.0996 47.6994 89.1796Z" fill="#5008A8"/>
<path d="M155.29 62.3698C155.989 65.7128 156.451 69.1014 156.67 72.5098C156.84 74.9398 157.2 74.3198 153.18 75.0398C152.4 75.1798 151.63 75.3598 150.85 75.4598C151.28 75.9798 154.23 79.4598 153.03 79.5798C151.41 81.7398 140.46 89.7098 137.61 91.2998C137.46 92.2998 137.35 93.2298 137.29 94.2098C137.152 94.2154 137.017 94.2494 136.893 94.3096C136.769 94.3699 136.659 94.455 136.57 94.5598C136.58 93.3872 136.68 92.2171 136.87 91.0598C132.17 87.7298 127.7 80.2198 126.98 78.3398C126.64 77.4598 128.43 76.2498 128.98 75.7098C127.78 74.7098 124.7 73.3898 124.85 72.8998C125.925 69.7043 127.386 66.6518 129.2 63.8098C128.07 64.5004 126.962 65.2274 125.88 65.9898C125.46 49.8898 125.47 33.2898 124.5 17.2598H127.09C127.54 17.2598 127.51 16.0998 127.09 16.0998H124.39C118.2 14.9998 112.01 13.9098 105.85 12.6298C96.2596 10.6298 86.4996 8.18982 76.9196 6.39982V5.20982C76.9196 4.94982 75.8596 4.91982 75.8596 5.20982V6.31982C62.2496 9.85982 48.4696 12.8198 34.7696 15.8498C33.0175 16.1425 31.2818 16.5264 29.5696 16.9998L26.2396 17.0698C25.8696 17.0698 25.8796 18.0698 26.2396 18.0698H29.6996C29.1996 44.8498 29.1496 71.6098 28.9396 98.3698C28.9396 98.9498 28.6796 103.49 29.1896 103.49C34.9496 103.61 75.4496 103.49 75.4496 103.49C75.4496 129.93 75.4163 156.373 75.3496 182.82C67.1996 187.13 55.9996 193.14 54.1296 194.25C53.7896 194.34 24.8996 194.25 21.1896 194.34C20.9696 194.34 20.9696 194.76 21.1896 194.76C26.0396 194.93 170.32 195 170.32 195C170.72 195 170.8 194.33 170.4 194.33H163.78C163.556 192.408 163.172 190.507 162.63 188.65C160.352 188.88 158.057 188.88 155.78 188.65C154.19 189.22 147.91 191.65 147.66 194.3H140.53C140.359 192.446 140.004 190.613 139.47 188.83C137.017 189.397 134.475 189.455 132 189C130.93 189.38 124.83 191.59 124.38 194.32H99.5096C98.9096 193.72 77.4596 183.25 77.0996 183.13V103.52H117.16C116.8 108.52 116.65 116.36 116.88 116.46C127.19 120.85 137.11 119.09 138.37 115.78C135.95 112.45 136.14 103.62 136.16 101.96C136.352 102.267 136.576 102.552 136.83 102.81C136.7 105.81 136.7 115.07 140.74 117.74C145.02 120.58 158.98 120.85 165.03 119.32C165.09 116.46 164.95 112.76 164.82 110.83C159.499 110.407 154.22 109.571 149.03 108.33C148.48 108.21 144.69 107.51 144.63 107.06C144.57 106.61 144.5 106 144.46 105.46L142.46 105.01C142.451 102.467 142.706 99.9302 143.22 97.4398L144.76 97.3798C144.84 96.8598 144.76 95.9098 145.37 95.9098C146.842 95.4239 148.346 95.0364 149.87 94.7498C152.423 94.2098 154.97 93.6932 157.51 93.1998C156.852 90.5068 156.417 87.7642 156.21 84.9998C156.21 84.6798 156.67 84.5998 156.7 84.9198C157.027 87.6716 157.542 90.3979 158.24 93.0798C161.157 92.4704 164.109 92.0396 167.08 91.7898C167.131 91.8008 167.177 91.8291 167.211 91.87C167.244 91.911 167.262 91.9621 167.262 92.0148C167.262 92.0675 167.244 92.1187 167.211 92.1596C167.177 92.2006 167.131 92.2289 167.08 92.2398C159.94 92.8098 152.58 94.7498 145.58 96.4098C144.969 99.8238 144.79 103.301 145.05 106.76C149.508 107.93 154.028 108.849 158.59 109.51C166.03 110.42 177.04 112.23 178.59 101.96C181.05 86.6498 169 68.5898 155.29 62.3698ZM75.3496 194.27H56.9996C63.0896 190.94 69.2496 187.95 75.3996 184.49L75.3496 194.27ZM121.06 16.0798L77.0596 16.5298C77.0596 13.2798 76.9896 10.5298 76.9296 7.25982C91.1796 10.5298 106.6 13.5298 121.06 16.0798ZM75.8296 7.32982C75.7696 10.5698 75.7096 13.3298 75.6696 16.5498C60.8996 16.6898 47.0096 16.7298 32.2396 16.9998C47.0896 14.0998 75.8296 7.32982 75.8296 7.32982ZM96.5896 194.33H76.9996V184.59C82.8096 187.92 90.4296 191.5 96.5896 194.28V194.33ZM123.82 75.6298C119.82 83.9498 117.93 93.7098 117.2 102.92C88.1996 102.92 58.6396 102.22 29.7196 102.85C29.8896 100.68 29.5696 97.0998 29.5896 94.7698C29.7896 69.1898 30.6396 43.7698 30.5396 18.1498C42.4196 18.1498 123.64 17.2898 123.64 17.2898C124.19 32.4498 125.26 65.7198 125.33 66.4398C119.649 70.5017 114.54 75.308 110.14 80.7298C112.031 81.0726 113.898 81.5369 115.73 82.1198C115.791 82.1464 115.84 82.1954 115.866 82.2568C115.892 82.3183 115.893 82.3874 115.87 82.4498C115.847 82.5054 115.806 82.5512 115.752 82.5787C115.699 82.6062 115.638 82.6137 115.58 82.5998C111.79 81.6998 97.9196 78.7598 91.5796 79.4498C91.4296 79.4498 91.4596 79.7098 91.5096 80.0198C90.9175 79.8987 90.3101 79.8717 89.7096 79.9398C87.9596 77.5798 86.1096 74.9398 83.0796 76.9398C81.7296 74.3998 70.1496 52.2498 69.6996 52.2098C69.1396 51.3898 68.4896 52.2098 68.8596 52.8998L81.8096 78.9998C80.8096 79.8598 80.6596 81.1898 81.5096 81.4698C80.9896 82.5498 81.7096 83.8298 82.0696 83.6798C81.6796 85.6798 84.6496 87.5298 85.9796 87.2798C86.1596 87.6198 86.9796 89.3698 87.3296 89.3498C87.5223 89.5008 87.7612 89.5805 88.0059 89.5753C88.2506 89.5702 88.486 89.4805 88.6721 89.3215C88.8582 89.1625 88.9836 88.944 89.0268 88.703C89.0701 88.4621 89.0287 88.2137 88.9096 87.9998L89.7496 88.4498C89.5096 88.8498 89.3696 89.0598 89.4396 89.1398C93.5696 93.9598 103.83 99.9298 107.76 100.54C110.94 101.03 114.68 101.13 116.55 100.6C117.41 92.3698 119.38 82.6998 123.35 75.3398C123.365 75.3088 123.385 75.2811 123.411 75.2582C123.437 75.2354 123.467 75.2179 123.5 75.2067C123.532 75.1955 123.567 75.1909 123.601 75.1932C123.635 75.1954 123.669 75.2045 123.7 75.2198C123.732 75.2347 123.761 75.256 123.785 75.2825C123.808 75.309 123.826 75.3401 123.838 75.3738C123.849 75.4076 123.853 75.4433 123.85 75.4787C123.847 75.5141 123.837 75.5485 123.82 75.5798V75.6298ZM86.2996 81.8598C86.2355 81.7385 86.141 81.636 86.0253 81.5624C85.9095 81.4887 85.7766 81.4465 85.6396 81.4398C85.7515 81.3696 85.8469 81.276 85.9193 81.1656C85.9918 81.0551 86.0397 80.9304 86.0596 80.7998C86.4396 81.2098 86.5496 80.9398 86.4396 80.7998C85.9196 80.0498 85.4396 77.9698 85.0196 78.1598C84.6296 78.0198 83.4296 78.4198 82.7696 78.3598C82.5096 78.3598 82.3096 78.1898 82.5096 77.9098C83.2649 77.0867 84.3055 76.5825 85.4196 76.4998C86.8996 76.7598 88.7296 79.2398 89.5096 80.3598C90.3796 82.6798 88.9096 86.2298 88.3096 86.8198L86.1996 82.7098C86.2929 82.5911 86.3517 82.4489 86.3693 82.2989C86.387 82.1489 86.3628 81.997 86.2996 81.8598ZM82.0596 78.2998L69.1296 52.4798C69.1296 51.8798 69.5596 52.3998 69.7496 52.7098C70.8696 54.9598 82.7496 77.2098 82.7496 77.2098C82.5551 77.3222 82.3907 77.4801 82.2705 77.6699C82.1503 77.8598 82.078 78.0759 82.0596 78.2998ZM82.3896 79.1398C82.9796 78.8298 84.6696 78.3198 85.0896 79.0798C85.1396 79.3198 85.1896 79.5498 85.2296 79.7898C84.5676 79.6678 83.8847 79.7344 83.2588 79.982C82.6328 80.2295 82.0891 80.6481 81.6896 81.1898C81.0796 80.4898 81.6796 79.4898 82.3896 79.1398ZM81.7896 81.8298C82.1596 80.8298 84.2996 79.6498 85.2696 80.2398C86.2396 80.8298 84.9996 81.2398 84.8196 81.4898C84.2302 81.5297 83.665 81.74 83.1928 82.0951C82.7206 82.4501 82.3617 82.9346 82.1596 83.4898C81.9461 83.2772 81.7978 83.008 81.7322 82.7139C81.6667 82.4197 81.6866 82.113 81.7896 81.8298ZM83.9996 82.0998C84.4196 81.9398 86.5296 81.4298 85.8296 82.5498C84.8296 82.6398 83.9796 83.3998 84.4796 84.3798C84.8996 85.1998 85.3296 86.0198 85.7696 86.8298C82.9396 86.5198 80.8496 83.2698 83.9996 82.0998ZM84.6996 83.6198C84.8003 83.4315 84.9428 83.2687 85.1161 83.1439C85.2895 83.0191 85.4891 82.9356 85.6996 82.8998C86.0696 83.6198 88.5796 88.2898 88.5796 88.6598C88.5796 89.0298 87.7596 89.3398 87.5796 88.9998C86.5663 87.2332 85.5996 85.4398 84.6796 83.6198H84.6996ZM88.4696 87.0798C90.0196 85.9398 90.4696 82.4098 90.0196 80.2698L91.6696 80.5098C91.9066 83.1386 91.3232 85.7762 89.9996 88.0598C89.6796 87.8598 88.5996 87.3798 88.4496 87.0798H88.4696ZM142.16 103.81C140.81 103.73 139.45 104.01 137.99 103.15C136.91 102.51 135.8 101.15 136.16 99.8798C136.56 100.42 136.76 99.9498 136.61 99.7798C136.336 99.4819 136.149 99.1146 136.07 98.7178C135.99 98.3211 136.021 97.9101 136.16 97.5298C136.49 98.1998 136.81 97.8098 136.69 97.5998C136.2 96.6898 136.09 95.0598 137.26 94.5998C137.17 96.8998 139.69 97.2298 139.51 96.5998C139.51 96.5998 138.51 92.2298 139.64 92.4498C140.19 93.9298 140.94 97.1598 142.64 97.6098C142.252 99.6528 142.085 101.731 142.14 103.81H142.16Z" fill="#5008A8"/>
<path d="M41.3396 91.4295C49.0196 80.4295 58.8296 63.6795 65.2496 52.0495C65.4919 52.1993 65.7715 52.278 66.0564 52.2766C66.3413 52.2752 66.6201 52.1937 66.8609 52.0415C67.1017 51.8893 67.2949 51.6724 67.4185 51.4157C67.542 51.159 67.5909 50.8727 67.5596 50.5895C75.3396 52.5895 83.4496 53.7595 91.3096 55.5095C91.4596 57.5995 94.3996 56.7995 93.9496 55.0895C100.47 48.5095 107.49 41.5095 113.86 34.9895L114.1 35.0895C114.475 35.2135 114.884 35.1843 115.238 35.0082C115.592 34.8322 115.862 34.5236 115.99 34.1495C116.12 33.7984 116.11 33.4106 115.962 33.0664C115.815 32.7222 115.541 32.4479 115.196 32.3002C114.852 32.1525 114.464 32.1428 114.113 32.2729C113.762 32.4031 113.474 32.6632 113.31 32.9995C113.168 33.2665 113.108 33.5695 113.139 33.8703C113.169 34.1711 113.287 34.4561 113.48 34.6895C107.04 41.2195 99.8796 47.9395 93.7696 54.6895C93.6081 54.4678 93.3858 54.2976 93.1296 54.1995C92.7873 54.0759 92.4101 54.0915 92.0792 54.243C91.7482 54.3944 91.4898 54.6697 91.3596 55.0095C87.3596 54.1995 69.3596 50.2595 67.4796 50.1895C66.7496 48.0295 63.3496 49.8995 64.8196 51.6995C57.2896 65.3595 49.2296 77.9995 40.9996 91.1995C40.6728 91.0422 40.3027 90.9991 39.9485 91.077C39.5943 91.155 39.2765 91.3496 39.046 91.6297C38.8155 91.9097 38.6857 92.259 38.6773 92.6216C38.6688 92.9842 38.7824 93.3391 38.9996 93.6295C40.3296 95.5195 43.1396 93.0595 41.3396 91.4295ZM114.52 25.5695C114.15 25.6195 114.28 26.1295 114.3 26.3795C114.72 30.5995 115.42 25.4795 114.52 25.5695Z" fill="#5008A8"/>
<path d="M92.7894 44.9096C92.1794 44.8496 92.5894 47.2296 92.6494 47.7896C92.653 47.8134 92.6614 47.8362 92.6739 47.8567C92.6865 47.8772 92.7031 47.8949 92.7227 47.9089C92.7423 47.9229 92.7645 47.9328 92.7879 47.9381C92.8114 47.9434 92.8357 47.9439 92.8594 47.9396C92.8977 47.9353 92.9334 47.9181 92.9606 47.8908C92.9879 47.8636 93.0051 47.8279 93.0094 47.7896C92.9994 47.3596 93.2894 44.9996 92.7894 44.9096ZM92.9994 52.6696C93.3394 48.2196 92.4494 49.9696 92.4494 50.0296C92.4709 50.9102 92.5477 51.7886 92.6794 52.6596C92.678 52.702 92.6936 52.7432 92.7227 52.7742C92.7518 52.8051 92.7919 52.8233 92.8344 52.8246C92.8768 52.8259 92.918 52.8103 92.949 52.7813C92.9799 52.7522 92.998 52.712 92.9994 52.6696ZM92.6894 35.4696C92.3194 35.5196 92.4494 36.0296 92.4794 36.2796C92.9294 40.4996 93.5894 35.3796 92.6894 35.4696ZM114.329 29.5496C114.069 31.9996 114.999 32.2196 114.879 30.4096C114.879 30.0196 114.759 29.6296 114.709 29.2396C114.709 29.0696 114.389 28.9296 114.329 29.5496ZM104.569 30.7496C106.429 30.9396 110.409 30.8196 110.649 30.8096C112.149 30.8096 111.999 30.8096 111.889 29.3696C111.889 28.6096 111.789 27.7796 111.439 27.8796L103.929 27.7196C103.339 27.5596 103.559 28.5396 103.589 29.1696C103.649 30.3096 103.249 30.6096 104.569 30.7496ZM104.079 28.1396L111.409 28.3596L111.469 30.2796H104.069L104.079 28.1396ZM92.5894 28.3196C92.6033 28.3643 92.634 28.4018 92.6751 28.4242C92.7161 28.4466 92.7643 28.4521 92.8094 28.4396C92.8388 28.4309 92.8658 28.4155 92.8884 28.3947C92.9109 28.3739 92.9284 28.3482 92.9394 28.3196C93.0923 27.451 93.1125 26.5642 92.9994 25.6896C92.9865 25.6593 92.9675 25.6319 92.9436 25.6092C92.9197 25.5866 92.8914 25.5691 92.8605 25.5578C92.8295 25.5466 92.7966 25.5418 92.7637 25.5438C92.7308 25.5458 92.6987 25.5546 92.6694 25.5696C92.6331 25.5882 92.6021 25.6157 92.5794 25.6496C92.4341 26.5236 92.4341 27.4156 92.5794 28.2896L92.5894 28.3196ZM92.7794 30.5896C92.2894 30.5896 92.4794 31.5396 92.4994 31.8096C92.6794 35.4796 93.7194 30.6096 92.7794 30.5896ZM52.7394 49.0596C52.7394 49.2096 53.0094 49.2296 53.4194 49.2296C55.1694 49.2296 61.4894 49.7296 61.5994 49.0296C61.9594 49.0296 61.8294 46.8596 61.7794 46.4396C62.2294 45.3696 53.6794 46.1596 53.0594 46.1096C52.7794 46.0296 52.6494 46.3396 52.6994 46.7996C52.7794 47.5796 52.6994 48.6996 52.7394 49.0596ZM53.1694 46.5396C55.8694 46.5396 58.7394 46.6096 61.4294 46.5396V48.8496C58.6094 48.9596 55.8794 48.8496 53.1294 48.9296C53.1831 48.1341 53.1965 47.3364 53.1694 46.5396ZM39.7494 28.5196C39.5994 36.3496 39.6594 77.2896 39.6794 89.9296C39.6794 90.3296 40.3094 90.3796 40.3094 89.9296C40.3094 81.8096 40.3994 40.8296 40.1394 28.4596C40.4394 28.4596 41.4894 28.4096 41.6994 28.0696C41.9094 27.7296 40.4394 23.8396 40.2194 23.2596C40.1394 23.0596 39.8794 23.1996 39.8394 23.3396C39.3594 24.9296 38.8394 26.4896 38.4194 28.0996C38.2994 28.5896 39.4394 28.5296 39.7494 28.5196ZM93.0694 41.9996V40.8996C93.0694 40.1896 92.2094 39.6096 92.5794 42.3296C92.6794 42.9996 92.9994 42.9996 93.0694 41.9996ZM65.6594 47.4096C65.7194 47.8196 66.2994 47.7796 66.2694 47.0396C66.1794 44.6996 65.6494 44.6596 65.6394 45.8296C65.5994 46.3555 65.5994 46.8837 65.6394 47.4096H65.6594ZM65.9994 28.6796C66.5494 28.6296 66.1194 26.1396 65.9994 25.6796C65.9994 25.5096 65.6894 25.4696 65.6794 25.6796C65.6794 26.5796 65.6594 27.4796 65.6194 28.3796C65.6177 28.4267 65.6271 28.4736 65.6469 28.5164C65.6666 28.5592 65.6963 28.5967 65.7333 28.626C65.7703 28.6552 65.8137 28.6753 65.8599 28.6846C65.9061 28.6939 65.9539 28.6922 65.9994 28.6796ZM65.6494 36.2996V37.4196C65.6494 38.1296 66.5094 38.6896 66.1394 35.9896C65.9994 35.2996 65.6894 35.3596 65.6494 36.2996ZM65.9294 33.4496C66.5494 33.5096 66.1294 31.1296 66.0694 30.5596C66.0694 30.5118 66.0504 30.4661 66.0166 30.4323C65.9829 30.3985 65.9371 30.3796 65.8894 30.3796C65.8416 30.3796 65.7958 30.3985 65.7621 30.4323C65.7283 30.4661 65.7094 30.5118 65.7094 30.5596C65.7094 30.9996 65.4294 33.3996 65.9294 33.4496Z" fill="#5008A8"/>
</svg>
